<?xml version="1.0" encoding="utf-8"?>
<svg xmlns="http://www.w3.org/2000/svg" height="512pt" version="1.1" viewBox="0 0 512 512" width="512pt">
<path d="M 0.00 0.00 L 512.00 0.00 L 512.00 512.00 L 0.00 512.00 L 0.00 0.00 Z" fill="transparent" opacity="1.00" stroke="transparent" stroke-width="0.25"/>
<path d="M 264.66 69.59 C 269.84 69.37 274.89 70.65 280.01 71.24 C 310.82 75.26 341.54 79.95 372.38 83.80 C 372.83 88.86 372.56 93.93 372.79 99.00 C 373.18 100.64 373.54 102.30 373.80 103.98 C 373.06 101.86 372.18 99.79 371.38 97.69 C 371.44 93.21 371.42 88.73 371.72 84.27 C 356.35 82.22 341.00 80.05 325.63 78.02 C 308.49 75.18 291.19 73.50 274.04 70.78 C 271.09 70.29 268.10 70.14 265.12 70.00 C 265.27 75.85 264.69 81.68 264.12 87.50 C 272.81 88.43 281.48 89.65 290.11 91.02 C 313.14 94.28 336.17 97.45 359.21 100.56 C 357.01 100.49 354.82 100.41 352.63 100.15 C 329.75 96.91 306.82 93.97 283.97 90.48 C 277.36 89.72 270.81 88.56 264.18 88.00 C 263.26 108.32 261.49 128.60 260.86 148.94 C 260.06 154.92 260.14 160.95 259.98 166.97 C 259.50 171.86 259.03 176.75 259.01 181.67 C 281.83 183.28 304.54 187.29 326.13 194.98 C 325.50 194.91 324.25 194.76 323.62 194.69 C 302.71 187.31 280.57 183.23 258.44 182.59 C 258.47 182.21 258.53 181.45 258.56 181.07 C 258.66 178.03 258.53 174.97 259.03 171.95 C 260.03 165.31 259.09 158.56 260.07 151.91 C 261.00 145.29 260.11 138.56 261.18 131.95 C 261.84 127.25 261.33 122.50 261.83 117.80 C 262.96 110.60 262.21 103.28 263.43 96.08 C 263.26 87.21 264.89 78.46 264.66 69.59 Z" fill="#7a402a" opacity="1.00" stroke="#7a402a" stroke-width="0.25"/>
<path d="M 265.12 70.00 C 268.10 70.14 271.09 70.29 274.04 70.78 C 291.19 73.50 308.49 75.18 325.63 78.02 C 341.00 80.05 356.35 82.22 371.72 84.27 C 371.42 88.73 371.44 93.21 371.38 97.69 C 370.72 99.50 370.01 101.35 370.09 103.31 C 369.51 119.49 368.38 135.64 367.67 151.81 C 367.33 155.87 366.96 159.93 366.97 164.01 C 367.00 170.15 365.87 176.24 366.12 182.38 C 365.63 191.16 365.10 199.93 364.73 208.71 C 358.93 208.63 352.36 209.38 347.47 205.59 C 342.62 202.17 337.27 199.54 331.87 197.13 C 330.40 196.38 328.75 196.36 327.16 196.39 C 325.98 195.81 324.79 195.25 323.62 194.69 C 324.25 194.76 325.50 194.91 326.13 194.98 C 304.54 187.29 281.83 183.28 259.01 181.67 C 259.03 176.75 259.50 171.86 259.98 166.97 C 260.14 160.95 260.06 154.92 260.86 148.94 C 261.49 128.60 263.26 108.32 264.18 88.00 C 270.81 88.56 277.36 89.72 283.97 90.48 C 306.82 93.97 329.75 96.91 352.63 100.15 C 354.82 100.41 357.01 100.49 359.21 100.56 C 336.17 97.45 313.14 94.28 290.11 91.02 C 281.48 89.65 272.81 88.43 264.12 87.50 C 264.69 81.68 265.27 75.85 265.12 70.00 Z" fill="#e7d8bb" opacity="1.00" stroke="#e7d8bb" stroke-width="0.25"/>
<path d="M 371.38 97.69 C 372.18 99.79 373.06 101.86 373.80 103.98 C 374.06 105.02 374.00 106.11 373.75 107.14 C 371.82 114.60 373.47 122.36 373.69 129.93 C 374.26 134.72 373.04 139.96 375.59 144.33 C 375.93 144.99 376.00 145.70 375.79 146.45 C 374.43 153.09 374.81 159.95 375.44 166.65 C 375.75 167.05 376.39 167.85 376.71 168.25 L 376.95 168.55 C 378.05 188.57 378.69 208.61 379.76 228.62 C 379.91 231.35 380.09 234.12 379.68 236.84 C 376.83 237.77 373.78 237.37 370.85 237.42 C 370.65 241.31 370.65 245.20 370.65 249.09 C 370.55 254.34 370.11 259.58 370.04 264.84 C 375.68 259.47 382.92 255.15 390.93 255.20 C 401.78 254.48 412.47 261.12 417.03 270.92 C 420.51 277.70 421.21 285.56 420.48 293.05 C 419.38 301.89 416.38 310.73 410.53 317.58 C 409.84 318.53 408.85 319.14 407.75 319.49 C 416.99 309.99 420.68 296.03 419.40 283.05 C 418.79 275.30 415.60 267.49 409.51 262.45 C 399.20 253.64 382.52 254.50 372.65 263.57 C 370.80 265.23 369.55 267.51 369.43 270.03 C 368.88 275.32 368.16 280.59 367.27 285.83 C 369.26 285.82 371.26 285.79 373.26 285.76 C 376.28 280.34 379.07 273.93 385.23 271.44 C 391.01 268.54 398.55 270.26 402.56 275.33 C 407.35 280.55 407.22 288.29 406.28 294.87 C 405.01 301.77 402.00 309.16 395.77 312.97 C 392.89 309.84 389.53 307.21 385.97 304.90 C 385.64 306.84 385.31 308.79 384.65 310.65 C 385.49 305.32 383.09 300.45 381.17 295.66 C 382.87 298.40 383.98 301.54 385.99 304.07 C 389.38 306.78 393.12 309.06 396.15 312.22 C 403.90 305.22 406.87 294.13 405.38 283.99 C 404.88 279.59 402.36 275.53 398.85 272.91 C 393.68 270.25 386.95 270.64 382.31 274.22 C 378.29 277.40 376.39 282.33 374.11 286.75 C 371.64 286.90 369.16 287.07 366.69 287.04 C 366.43 287.01 365.91 286.96 365.65 286.93 C 368.48 273.71 369.34 260.15 369.24 246.65 C 370.27 238.81 369.52 230.50 365.12 223.74 C 366.91 217.27 365.75 210.50 366.46 203.90 C 366.82 196.75 368.24 189.40 366.12 182.38 C 365.87 176.24 367.00 170.15 366.97 164.01 C 366.96 159.93 367.33 155.87 367.67 151.81 C 367.63 154.70 367.94 157.58 368.41 160.43 C 369.35 153.87 368.66 147.21 369.50 140.65 C 370.26 134.66 369.88 128.60 370.49 122.60 C 370.97 116.20 372.09 109.58 370.09 103.31 C 370.01 101.35 370.72 99.50 371.38 97.69 Z" fill="#baa280" opacity="1.00" stroke="#baa280" stroke-width="0.25"/>
<path d="M 370.09 103.31 C 372.09 109.58 370.97 116.20 370.49 122.60 C 369.88 128.60 370.26 134.66 369.50 140.65 C 368.66 147.21 369.35 153.87 368.41 160.43 C 367.94 157.58 367.63 154.70 367.67 151.81 C 368.38 135.64 369.51 119.49 370.09 103.31 Z" fill="#a08e71" opacity="1.00" stroke="#a08e71" stroke-width="0.25"/>
<path d="M 373.69 129.93 C 373.47 122.36 371.82 114.60 373.75 107.14 C 374.51 119.52 375.39 131.92 375.59 144.33 C 373.04 139.96 374.26 134.72 373.69 129.93 Z" fill="#9a8d7a" opacity="1.00" stroke="#9a8d7a" stroke-width="0.25"/>
<path d="M 284.71 133.57 C 292.13 127.30 302.65 125.58 311.94 127.88 C 328.26 131.30 342.87 144.87 344.42 161.98 C 345.38 172.37 338.93 183.17 329.01 186.72 C 322.61 189.05 315.52 189.29 308.99 187.37 C 300.93 185.68 293.08 181.69 287.80 175.29 L 288.94 176.11 C 294.49 180.78 300.76 184.74 307.96 186.23 C 318.05 188.93 330.52 188.03 337.80 179.70 C 344.30 172.73 344.76 162.08 341.56 153.50 C 336.70 139.71 323.05 130.40 308.93 128.28 C 299.78 126.80 289.71 129.35 283.21 136.16 C 277.51 142.50 276.26 151.93 278.93 159.88 C 280.33 165.23 283.56 169.76 286.89 174.06 L 287.62 175.13 C 281.65 170.12 278.03 162.50 276.84 154.87 C 275.57 147.02 278.60 138.66 284.71 133.57 Z" fill="#baa280" opacity="1.00" stroke="#baa280" stroke-width="0.25"/>
<path d="M 283.21 136.16 C 289.71 129.35 299.78 126.80 308.93 128.28 C 323.05 130.40 336.70 139.71 341.56 153.50 C 344.76 162.08 344.30 172.73 337.80 179.70 C 330.52 188.03 318.05 188.93 307.96 186.23 C 300.76 184.74 294.49 180.78 288.94 176.11 C 288.21 175.47 287.53 174.79 286.89 174.06 C 283.56 169.76 280.33 165.23 278.93 159.88 C 276.26 151.93 277.51 142.50 283.21 136.16 Z" fill="#fefefe" opacity="1.00" stroke="#fefefe" stroke-width="0.25"/>
<path d="M 375.44 166.65 C 374.81 159.95 374.43 153.09 375.79 146.45 C 376.32 153.70 376.62 160.98 376.71 168.25 C 376.39 167.85 375.75 167.05 375.44 166.65 Z" fill="#a0927d" opacity="1.00" stroke="#a0927d" stroke-width="0.25"/>
<path d="M 178.19 191.23 C 204.02 182.70 231.50 180.48 258.56 181.07 C 258.53 181.45 258.47 182.21 258.44 182.59 C 253.32 183.21 248.17 182.81 243.04 182.87 C 214.40 183.06 185.37 188.07 159.25 200.14 C 147.23 206.36 134.93 214.00 128.34 226.29 C 125.69 230.96 125.01 236.33 124.76 241.60 L 123.98 243.00 C 123.10 238.45 123.58 233.65 125.41 229.39 C 129.23 219.92 136.86 212.56 145.11 206.84 C 155.13 199.77 166.52 194.86 178.19 191.23 Z" fill="#c9c9c9" opacity="1.00" stroke="#c9c9c9" stroke-width="0.25"/>
<path d="M 159.25 200.14 C 185.37 188.07 214.40 183.06 243.04 182.87 C 248.17 182.81 253.32 183.21 258.44 182.59 C 280.57 183.23 302.71 187.31 323.62 194.69 C 324.79 195.25 325.98 195.81 327.16 196.39 C 340.99 202.21 354.47 210.00 363.91 221.95 C 364.21 222.40 364.81 223.29 365.12 223.74 C 369.52 230.50 370.27 238.81 369.24 246.65 C 366.62 252.24 363.59 257.71 359.38 262.28 C 352.23 270.60 342.47 276.03 332.71 280.71 C 324.00 285.30 314.43 287.87 305.01 290.56 C 274.06 298.13 241.61 299.45 210.15 294.48 C 193.14 292.07 176.38 287.47 160.76 280.30 C 150.62 276.30 142.02 269.29 134.48 261.57 C 130.07 257.19 127.47 251.45 125.03 245.84 C 124.92 244.42 124.83 243.01 124.76 241.60 C 125.01 236.33 125.69 230.96 128.34 226.29 C 134.93 214.00 147.23 206.36 159.25 200.14 Z" fill="#fefefe" opacity="1.00" stroke="#fefefe" stroke-width="0.25"/>
<path d="M 366.12 182.38 C 368.24 189.40 366.82 196.75 366.46 203.90 C 365.75 210.50 366.91 217.27 365.12 223.74 C 364.81 223.29 364.21 222.40 363.91 221.95 C 363.78 217.52 364.34 213.11 364.73 208.71 C 365.10 199.93 365.63 191.16 366.12 182.38 Z" fill="#a89578" opacity="1.00" stroke="#a89578" stroke-width="0.25"/>
<path d="M 171.80 207.03 C 189.04 199.91 207.64 197.02 226.04 194.70 C 239.36 193.99 252.72 194.08 266.05 194.51 C 281.91 195.78 297.58 198.98 312.84 203.42 C 325.68 207.69 337.98 213.92 348.47 222.53 C 354.00 227.63 358.78 234.37 359.27 242.10 C 359.00 245.17 358.96 248.68 356.56 250.95 C 351.47 242.63 343.31 236.77 334.98 232.00 C 312.24 220.05 286.42 215.40 261.00 213.82 C 231.02 212.50 200.30 215.12 172.16 226.14 C 159.10 231.39 146.31 238.73 137.81 250.25 L 136.79 251.21 C 134.27 244.67 134.97 236.79 139.07 231.01 C 146.61 219.24 159.71 213.03 171.80 207.03 Z" fill="#f8e6b8" opacity="1.00" stroke="#f8e6b8" stroke-width="0.25"/>
<path d="M 327.16 196.39 C 328.75 196.36 330.40 196.38 331.87 197.13 C 337.27 199.54 342.62 202.17 347.47 205.59 C 352.36 209.38 358.93 208.63 364.73 208.71 C 364.34 213.11 363.78 217.52 363.91 221.95 C 354.47 210.00 340.99 202.21 327.16 196.39 Z" fill="#ccb79a" opacity="1.00" stroke="#ccb79a" stroke-width="0.25"/>
<path d="M 172.16 226.14 C 200.30 215.12 231.02 212.50 261.00 213.82 C 286.42 215.40 312.24 220.05 334.98 232.00 C 343.31 236.77 351.47 242.63 356.56 250.95 C 356.80 252.27 356.70 253.71 355.95 254.87 C 351.08 263.26 343.03 269.09 334.91 274.06 C 329.90 270.62 324.89 267.06 319.21 264.82 C 311.01 261.66 302.84 258.25 294.17 256.62 C 268.95 251.05 242.78 250.21 217.18 253.39 C 197.06 256.15 177.06 262.02 159.97 273.27 L 159.06 273.82 C 151.86 269.25 144.79 264.11 139.86 257.03 C 138.52 255.07 136.77 252.74 137.81 250.25 C 146.31 238.73 159.10 231.39 172.16 226.14 Z" fill="#af5b39" opacity="1.00" stroke="#af5b39" stroke-width="0.25"/>
<path d="M 379.76 228.62 C 383.52 229.53 387.25 231.31 389.74 234.36 C 390.93 236.41 391.20 239.51 389.17 241.16 C 384.23 245.97 377.27 247.93 370.65 249.09 C 370.65 245.20 370.65 241.31 370.85 237.42 C 373.78 237.37 376.83 237.77 379.68 236.84 C 380.09 234.12 379.91 231.35 379.76 228.62 Z" fill="#dbdde0" opacity="1.00" stroke="#dbdde0" stroke-width="0.25"/>
<path d="M 123.98 243.00 L 124.76 241.60 C 124.83 243.01 124.92 244.42 125.03 245.84 C 124.99 263.92 125.95 282.59 133.10 299.46 C 137.10 313.67 145.03 326.38 153.84 338.08 C 170.45 358.77 193.77 374.22 219.66 380.38 C 243.91 386.74 270.26 384.48 293.14 374.27 C 296.97 372.51 300.80 370.71 304.52 368.73 C 309.34 366.18 313.46 362.53 318.28 359.97 C 317.75 362.66 317.47 365.39 317.47 368.13 C 317.39 366.05 317.43 363.96 317.44 361.89 C 299.60 374.97 278.18 383.49 256.02 384.90 C 233.85 386.64 211.33 381.68 191.73 371.27 C 182.80 366.46 174.64 360.39 166.88 353.90 C 155.23 343.24 145.56 330.43 138.40 316.36 C 135.08 309.54 132.31 302.47 130.03 295.24 C 129.68 295.44 128.99 295.85 128.64 296.06 L 128.05 295.59 L 129.44 294.51 C 126.98 284.16 124.73 273.68 124.38 262.99 C 124.34 256.34 123.32 249.57 123.98 243.00 Z" fill="#baa280" opacity="1.00" stroke="#baa280" stroke-width="0.25"/>
<path d="M 125.03 245.84 C 127.47 251.45 130.07 257.19 134.48 261.57 C 142.02 269.29 150.62 276.30 160.76 280.30 C 176.38 287.47 193.14 292.07 210.15 294.48 C 241.61 299.45 274.06 298.13 305.01 290.56 C 314.43 287.87 324.00 285.30 332.71 280.71 C 342.47 276.03 352.23 270.60 359.38 262.28 C 363.59 257.71 366.62 252.24 369.24 246.65 C 369.34 260.15 368.48 273.71 365.65 286.93 C 365.91 286.96 366.43 287.01 366.69 287.04 C 366.53 287.52 366.20 288.49 366.04 288.97 L 366.01 287.07 C 364.01 291.45 363.21 296.27 360.98 300.55 C 358.74 302.43 356.59 304.42 354.82 306.75 C 351.35 311.27 347.08 315.15 342.36 318.33 C 335.68 322.53 329.24 327.27 321.72 329.91 C 310.65 334.93 298.88 338.23 286.91 340.27 C 267.61 344.62 247.67 344.69 228.01 343.40 C 217.65 342.48 207.40 340.50 197.22 338.39 C 185.68 334.88 173.97 331.47 163.37 325.58 C 156.94 321.92 150.90 317.59 145.36 312.70 C 140.77 308.76 137.45 303.63 133.10 299.46 C 125.95 282.59 124.99 263.92 125.03 245.84 Z" fill="#f7df9f" opacity="1.00" stroke="#f7df9f" stroke-width="0.25"/>
<path d="M 217.18 253.39 C 242.78 250.21 268.95 251.05 294.17 256.62 C 302.84 258.25 311.01 261.66 319.21 264.82 C 324.89 267.06 329.90 270.62 334.91 274.06 C 310.31 287.76 281.79 292.08 254.02 293.37 C 230.65 293.83 207.11 291.20 184.67 284.53 C 175.80 281.88 167.33 278.08 159.13 273.82 L 159.97 273.27 C 177.06 262.02 197.06 256.15 217.18 253.39 Z" fill="#7a402a" opacity="1.00" stroke="#7a402a" stroke-width="0.25"/>
<path d="M 372.65 263.57 C 382.52 254.50 399.20 253.64 409.51 262.45 C 415.60 267.49 418.79 275.30 419.40 283.05 C 420.68 296.03 416.99 309.99 407.75 319.49 C 402.99 322.02 398.92 327.16 393.06 326.48 C 395.05 324.63 396.19 322.16 397.18 319.69 C 393.75 319.65 390.29 319.57 386.95 318.68 C 389.53 316.26 392.57 314.43 395.77 312.97 C 402.00 309.16 405.01 301.77 406.28 294.87 C 407.22 288.29 407.35 280.55 402.56 275.33 C 398.55 270.26 391.01 268.54 385.23 271.44 C 379.07 273.93 376.28 280.34 373.26 285.76 C 371.26 285.79 369.26 285.82 367.27 285.83 C 368.16 280.59 368.88 275.32 369.43 270.03 C 369.55 267.51 370.80 265.23 372.65 263.57 Z" fill="#f7e0a0" opacity="1.00" stroke="#f7e0a0" stroke-width="0.25"/>
<path d="M 382.31 274.22 C 386.95 270.64 393.68 270.25 398.85 272.91 C 402.36 275.53 404.88 279.59 405.38 283.99 C 406.87 294.13 403.90 305.22 396.15 312.22 C 393.12 309.06 389.38 306.78 385.99 304.07 C 383.98 301.54 382.87 298.40 381.17 295.66 C 380.12 293.38 379.09 291.08 378.00 288.82 C 375.95 291.09 374.17 293.68 373.36 296.68 L 373.07 297.67 C 370.61 296.16 367.93 295.07 365.22 294.11 C 365.50 292.40 365.76 290.68 366.04 288.97 C 366.20 288.49 366.53 287.52 366.69 287.04 C 369.16 287.07 371.64 286.90 374.11 286.75 C 376.39 282.33 378.29 277.40 382.31 274.22 Z" fill="#feffff" opacity="1.00" stroke="#feffff" stroke-width="0.25"/>
<path d="M 360.98 300.55 C 363.21 296.27 364.01 291.45 366.01 287.07 L 366.04 288.97 C 365.76 290.68 365.50 292.40 365.22 294.11 C 367.93 295.07 370.61 296.16 373.07 297.67 C 373.01 297.85 372.91 298.20 372.86 298.37 C 370.38 296.63 367.56 295.53 364.63 294.83 C 363.74 297.90 362.02 300.92 362.43 304.21 L 362.97 305.12 C 362.29 305.34 360.93 305.77 360.25 305.98 C 360.48 304.17 360.69 302.35 360.98 300.55 Z" fill="#baa280" opacity="1.00" stroke="#baa280" stroke-width="0.25"/>
<path d="M 373.36 296.68 C 374.17 293.68 375.95 291.09 378.00 288.82 C 379.09 291.08 380.12 293.38 381.17 295.66 C 383.09 300.45 385.49 305.32 384.65 310.65 C 383.35 313.52 380.03 314.11 377.34 314.95 C 380.38 316.57 383.55 318.00 386.95 318.68 C 390.29 319.57 393.75 319.65 397.18 319.69 C 396.19 322.16 395.05 324.63 393.06 326.48 C 392.00 327.71 391.00 328.99 389.93 330.21 C 385.97 332.08 382.29 334.71 377.89 335.47 C 372.47 336.89 366.88 336.27 361.40 335.78 C 359.51 334.55 357.64 333.30 355.78 332.04 C 354.78 333.67 353.79 335.30 352.75 336.92 C 352.38 336.38 351.65 335.30 351.28 334.76 C 350.74 332.93 353.04 332.22 353.96 331.07 C 353.11 329.44 352.27 327.79 351.49 326.13 C 351.16 323.66 350.87 321.05 351.71 318.65 C 353.27 315.69 356.25 313.76 359.30 312.59 C 361.92 312.24 364.55 312.00 367.17 311.73 C 365.74 309.54 364.31 307.36 362.97 305.12 L 362.43 304.21 C 366.56 304.45 370.59 305.45 374.69 305.89 C 373.96 302.87 373.33 299.80 373.36 296.68 Z" fill="#6abc09" opacity="1.00" stroke="#6abc09" stroke-width="0.25"/>
<path d="M 364.63 294.83 C 367.56 295.53 370.38 296.63 372.86 298.37 C 372.91 298.20 373.01 297.85 373.07 297.67 L 373.36 296.68 C 373.33 299.80 373.96 302.87 374.69 305.89 C 370.59 305.45 366.56 304.45 362.43 304.21 C 362.02 300.92 363.74 297.90 364.63 294.83 Z" fill="#edf6f7" opacity="1.00" stroke="#edf6f7" stroke-width="0.25"/>
<path d="M 122.31 298.29 C 124.24 297.17 126.23 295.32 128.64 296.06 C 118.30 302.16 107.94 309.00 101.10 319.11 C 94.83 327.56 92.26 338.71 94.75 348.98 C 96.95 357.38 101.92 364.87 108.23 370.76 C 117.53 380.05 129.13 386.62 141.03 392.00 C 166.90 403.37 194.91 409.22 222.96 411.79 C 231.66 411.98 240.31 413.29 249.03 412.94 C 283.64 412.84 318.55 408.10 351.15 396.12 C 363.98 391.12 376.62 385.07 387.32 376.27 C 397.79 368.26 406.38 356.53 407.59 343.08 C 408.19 338.24 406.82 333.50 405.74 328.84 L 406.48 327.15 C 409.05 334.46 410.02 342.50 407.65 350.01 C 405.06 360.35 397.58 368.44 390.28 375.81 C 378.40 385.70 364.53 392.87 350.03 398.09 C 318.12 409.74 283.92 414.51 250.04 414.18 C 222.04 414.58 193.98 410.83 167.05 403.12 C 157.87 400.19 148.63 397.33 139.89 393.20 C 130.38 389.06 121.65 383.41 113.07 377.62 C 107.54 371.26 100.74 365.79 96.98 358.06 C 91.93 348.90 90.91 337.51 94.91 327.77 C 100.16 315.04 110.93 305.53 122.31 298.29 Z" fill="#c4c5c5" opacity="1.00" stroke="#c4c5c5" stroke-width="0.25"/>
<path d="M 128.64 296.06 C 128.99 295.85 129.68 295.44 130.03 295.24 C 132.31 302.47 135.08 309.54 138.40 316.36 C 134.29 320.22 129.44 324.89 130.11 331.07 C 130.26 336.49 134.51 340.42 138.26 343.79 C 143.10 347.82 149.22 349.85 155.05 351.98 C 158.87 353.15 162.82 354.59 166.88 353.90 C 174.64 360.39 182.80 366.46 191.73 371.27 C 211.33 381.68 233.85 386.64 256.02 384.90 C 278.18 383.49 299.60 374.97 317.44 361.89 C 317.43 363.96 317.39 366.05 317.47 368.13 C 317.59 372.20 319.87 375.74 321.95 379.09 C 318.73 382.64 315.03 385.73 311.88 389.35 C 313.31 389.37 315.03 390.29 316.33 389.25 C 319.37 386.85 321.83 383.81 324.67 381.19 C 336.30 389.53 353.45 387.20 363.53 377.47 C 364.94 376.29 366.33 375.09 367.63 373.80 C 376.06 365.17 379.89 352.49 378.38 340.59 C 372.71 342.02 366.96 343.25 361.11 343.68 C 352.57 344.54 343.90 343.95 335.46 345.78 L 336.88 344.59 C 337.38 344.16 338.39 343.30 338.89 342.87 C 346.69 342.42 355.71 341.82 361.40 335.78 C 366.88 336.27 372.47 336.89 377.89 335.47 C 382.29 334.71 385.97 332.08 389.93 330.21 C 394.85 329.54 399.27 327.25 403.58 324.92 C 404.30 326.22 405.03 327.52 405.74 328.84 C 406.82 333.50 408.19 338.24 407.59 343.08 C 406.38 356.53 397.79 368.26 387.32 376.27 C 376.62 385.07 363.98 391.12 351.15 396.12 C 318.55 408.10 283.64 412.84 249.03 412.94 C 240.31 413.29 231.66 411.98 222.96 411.79 C 194.91 409.22 166.90 403.37 141.03 392.00 C 129.13 386.62 117.53 380.05 108.23 370.76 C 101.92 364.87 96.95 357.38 94.75 348.98 C 92.26 338.71 94.83 327.56 101.10 319.11 C 107.94 309.00 118.30 302.16 128.64 296.06 Z" fill="#f3f9fc" opacity="1.00" stroke="#f3f9fc" stroke-width="0.25"/>
<path d="M 133.10 299.46 C 137.45 303.63 140.77 308.76 145.36 312.70 C 150.90 317.59 156.94 321.92 163.37 325.58 C 173.97 331.47 185.68 334.88 197.22 338.39 C 207.40 340.50 217.65 342.48 228.01 343.40 C 247.67 344.69 267.61 344.62 286.91 340.27 C 298.88 338.23 310.65 334.93 321.72 329.91 C 329.24 327.27 335.68 322.53 342.36 318.33 C 347.08 315.15 351.35 311.27 354.82 306.75 C 356.59 304.42 358.74 302.43 360.98 300.55 C 360.69 302.35 360.48 304.17 360.25 305.98 C 359.97 308.19 359.63 310.39 359.30 312.59 C 356.25 313.76 353.27 315.69 351.71 318.65 C 350.87 321.05 351.16 323.66 351.49 326.13 C 347.10 331.57 343.44 337.56 338.89 342.87 C 338.39 343.30 337.38 344.16 336.88 344.59 C 333.06 346.95 328.62 348.23 325.11 351.10 C 322.13 353.44 320.14 356.73 318.28 359.97 C 313.46 362.53 309.34 366.18 304.52 368.73 C 300.80 370.71 296.97 372.51 293.14 374.27 C 270.26 384.48 243.91 386.74 219.66 380.38 C 193.77 374.22 170.45 358.77 153.84 338.08 C 145.03 326.38 137.10 313.67 133.10 299.46 Z" fill="#ebcb74" opacity="1.00" stroke="#ebcb74" stroke-width="0.25"/>
<path d="M 360.25 305.98 C 360.93 305.77 362.29 305.34 362.97 305.12 C 364.31 307.36 365.74 309.54 367.17 311.73 C 364.55 312.00 361.92 312.24 359.30 312.59 C 359.63 310.39 359.97 308.19 360.25 305.98 Z" fill="#f7dea9" opacity="1.00" stroke="#f7dea9" stroke-width="0.25"/>
<path d="M 385.97 304.90 C 389.53 307.21 392.89 309.84 395.77 312.97 C 392.57 314.43 389.53 316.26 386.95 318.68 C 383.55 318.00 380.38 316.57 377.34 314.95 C 380.03 314.11 383.35 313.52 384.65 310.65 C 385.31 308.79 385.64 306.84 385.97 304.90 Z" fill="#f2f6f8" opacity="1.00" stroke="#f2f6f8" stroke-width="0.25"/>
<path d="M 130.11 331.07 C 129.44 324.89 134.29 320.22 138.40 316.36 C 145.56 330.43 155.23 343.24 166.88 353.90 C 162.82 354.59 158.87 353.15 155.05 351.98 C 149.22 349.85 143.10 347.82 138.26 343.79 C 134.51 340.42 130.26 336.49 130.11 331.07 Z" fill="#e0e4e9" opacity="1.00" stroke="#e0e4e9" stroke-width="0.25"/>
<path d="M 393.06 326.48 C 398.92 327.16 402.99 322.02 407.75 319.49 C 407.86 321.22 406.12 322.06 405.13 323.16 C 405.44 325.04 405.62 326.93 405.74 328.84 C 405.03 327.52 404.30 326.22 403.58 324.92 C 399.27 327.25 394.85 329.54 389.93 330.21 C 391.00 328.99 392.00 327.71 393.06 326.48 Z" fill="#cecaaa" opacity="1.00" stroke="#cecaaa" stroke-width="0.25"/>
<path d="M 338.89 342.87 C 343.44 337.56 347.10 331.57 351.49 326.13 C 352.27 327.79 353.11 329.44 353.96 331.07 C 353.04 332.22 350.74 332.93 351.28 334.76 C 351.65 335.30 352.38 336.38 352.75 336.92 C 353.79 335.30 354.78 333.67 355.78 332.04 C 357.64 333.30 359.51 334.55 361.40 335.78 C 355.71 341.82 346.69 342.42 338.89 342.87 Z" fill="#f6e0a6" opacity="1.00" stroke="#f6e0a6" stroke-width="0.25"/>
<path d="M 361.11 343.68 C 366.96 343.25 372.71 342.02 378.38 340.59 C 379.89 352.49 376.06 365.17 367.63 373.80 C 367.26 373.90 366.50 374.09 366.12 374.18 C 369.46 368.36 373.70 362.94 375.64 356.42 C 377.05 352.29 377.43 347.91 377.35 343.57 C 370.54 343.86 363.84 345.31 357.03 345.66 C 348.99 346.26 340.71 346.12 333.02 348.84 C 326.96 350.95 321.76 355.75 319.61 361.83 C 317.46 367.60 319.93 373.97 323.48 378.60 C 330.41 384.40 340.34 386.02 348.99 383.72 C 354.26 382.72 358.53 379.22 363.53 377.47 C 353.45 387.20 336.30 389.53 324.67 381.19 C 321.83 383.81 319.37 386.85 316.33 389.25 C 315.03 390.29 313.31 389.37 311.88 389.35 C 315.03 385.73 318.73 382.64 321.95 379.09 C 319.87 375.74 317.59 372.20 317.47 368.13 C 317.47 365.39 317.75 362.66 318.28 359.97 C 320.14 356.73 322.13 353.44 325.11 351.10 C 328.62 348.23 333.06 346.95 336.88 344.59 L 335.46 345.78 C 343.90 343.95 352.57 344.54 361.11 343.68 Z" fill="#719e2f" opacity="1.00" stroke="#719e2f" stroke-width="0.25"/>
<path d="M 357.03 345.66 C 363.84 345.31 370.54 343.86 377.35 343.57 C 377.43 347.91 377.05 352.29 375.64 356.42 C 373.70 362.94 369.46 368.36 366.12 374.18 C 366.50 374.09 367.26 373.90 367.63 373.80 C 366.33 375.09 364.94 376.29 363.53 377.47 C 358.53 379.22 354.26 382.72 348.99 383.72 C 340.34 386.02 330.41 384.40 323.48 378.60 C 319.93 373.97 317.46 367.60 319.61 361.83 C 321.76 355.75 326.96 350.95 333.02 348.84 C 340.71 346.12 348.99 346.26 357.03 345.66 Z" fill="#6abe06" opacity="1.00" stroke="#6abe06" stroke-width="0.25"/>
<path d="M 350.03 398.09 C 364.53 392.87 378.40 385.70 390.28 375.81 C 388.95 381.70 384.30 386.04 380.14 390.11 C 369.83 399.13 357.29 405.30 344.36 409.64 C 325.97 416.44 306.45 419.54 287.04 421.80 C 270.74 423.47 254.32 423.54 237.94 423.30 C 209.13 422.49 180.24 417.92 153.10 408.01 C 140.84 403.65 129.33 396.99 119.81 388.10 C 117.18 384.92 113.40 382.04 113.07 377.62 C 121.65 383.41 130.38 389.06 139.89 393.20 C 148.63 397.33 157.87 400.19 167.05 403.12 C 193.98 410.83 222.04 414.58 250.04 414.18 C 283.92 414.51 318.12 409.74 350.03 398.09 Z" fill="#dcdddf" opacity="1.00" stroke="#dcdddf" stroke-width="0.25"/>
</svg>